<svg width="1440" height="900" viewBox="0 0 1440 900" fill="none" xmlns="http://www.w3.org/2000/svg">
  <defs>
    <linearGradient id="heroOverlay" x1="0" y1="0" x2="1440" y2="900" gradientUnits="userSpaceOnUse">
      <stop stop-color="#0C251F"/>
      <stop offset="0.48" stop-color="#18453B"/>
      <stop offset="1" stop-color="#0C251F"/>
    </linearGradient>
    <radialGradient id="goldGlow" cx="0" cy="0" r="1" gradientUnits="userSpaceOnUse" gradientTransform="translate(318 333) rotate(44.5) scale(424 345)">
      <stop stop-color="#FEF3C7" stop-opacity="0.25"/>
      <stop offset="1" stop-color="#FEF3C7" stop-opacity="0"/>
    </radialGradient>
    <radialGradient id="greenGlow" cx="0" cy="0" r="1" gradientUnits="userSpaceOnUse" gradientTransform="translate(1072 205) rotate(124.04) scale(336 398)">
      <stop stop-color="#6DB8A2" stop-opacity="0.26"/>
      <stop offset="1" stop-color="#6DB8A2" stop-opacity="0"/>
    </radialGradient>
    <filter id="softShadow" x="-30%" y="-30%" width="160%" height="160%">
      <feDropShadow dx="0" dy="20" stdDeviation="24" flood-color="#000000" flood-opacity="0.22"/>
    </filter>
    <filter id="sloganGlow" x="-10%" y="-80%" width="120%" height="260%">
      <feDropShadow dx="0" dy="0" stdDeviation="7" flood-color="#FEF3C7" flood-opacity="0.7"/>
      <feDropShadow dx="0" dy="0" stdDeviation="20" flood-color="#B45309" flood-opacity="0.38"/>
    </filter>
  </defs>

  <rect width="1440" height="900" fill="url(#heroOverlay)"/>
  <rect width="1440" height="900" fill="url(#goldGlow)"/>
  <rect width="1440" height="900" fill="url(#greenGlow)"/>
  <path d="M0 701C167 661 290 705 430 733C629 773 791 688 1005 706C1173 720 1271 792 1440 752V900H0V701Z" fill="white" fill-opacity="0.06"/>

  <g opacity="0.18">
    <circle cx="1160" cy="442" r="248" stroke="#FEF3C7" stroke-width="1"/>
    <circle cx="1160" cy="442" r="184" stroke="#FEF3C7" stroke-width="1"/>
    <circle cx="1160" cy="442" r="112" stroke="#FEF3C7" stroke-width="1"/>
  </g>

  <g transform="translate(76 34)">
    <rect x="0" y="0" width="52" height="52" rx="14" fill="white" fill-opacity="0.94" filter="url(#softShadow)"/>
    <circle cx="26" cy="26" r="15" fill="#18453B"/>
    <path d="M18 29C23 18 32 17 37 28C31 25 25 25 18 29Z" fill="#FEF3C7"/>
    <text x="66" y="21" fill="white" font-family="Plus Jakarta Sans, Arial, sans-serif" font-size="20" font-weight="800">Ihyaus Sunnah</text>
    <text x="66" y="42" fill="#FEF3C7" font-family="Plus Jakarta Sans, Arial, sans-serif" font-size="10" font-weight="700" letter-spacing="2.5">FOUNDATION</text>
  </g>

  <g transform="translate(783 49)" fill="white" fill-opacity="0.86" font-family="Plus Jakarta Sans, Arial, sans-serif" font-size="14" font-weight="600">
    <text x="0" y="0">About</text>
    <text x="86" y="0">Staff</text>
    <text x="162" y="0">Programs</text>
    <text x="284" y="0">Research</text>
    <text x="400" y="0">Media</text>
    <rect x="486" y="-27" width="92" height="42" rx="10" fill="#FEF3C7"/>
    <text x="509" y="0" fill="#18453B" font-weight="800">Donate</text>
  </g>

  <g transform="translate(76 196)">
    <text x="0" y="0" fill="#FEF3C7" font-family="Amiri, Georgia, serif" font-size="62" font-weight="700">تعلّموا مجاناً كما عُلّمتم مجاناً</text>

    <rect x="0" y="70" width="324" height="38" rx="10" fill="white" fill-opacity="0.1" stroke="#FEF3C7" stroke-opacity="0.32"/>
    <circle cx="22" cy="89" r="5" fill="#FEF3C7"/>
    <text x="38" y="94" fill="#FEF3C7" font-family="Plus Jakarta Sans, Arial, sans-serif" font-size="12" font-weight="800" letter-spacing="1.8">OUR MOTTO: EDUCATION AND SINCERITY</text>

    <text x="0" y="210" fill="white" font-family="Plus Jakarta Sans, Arial, sans-serif" font-size="74" font-weight="800">Ihyaus Sunnah</text>
    <text x="0" y="292" fill="white" font-family="Plus Jakarta Sans, Arial, sans-serif" font-size="74" font-weight="800">Foundation</text>

    <text x="0" y="361" fill="#FEF3C7" font-family="Plus Jakarta Sans, Arial, sans-serif" font-size="22" font-weight="800" filter="url(#sloganGlow)">Teach freely as you were taught freely</text>
    <text x="0" y="392" fill="#FEF3C7" fill-opacity="0.74" font-family="Plus Jakarta Sans, Arial, sans-serif" font-size="11" font-weight="800" letter-spacing="1.8">SLOGAN GLOWS AFTER 2 SECONDS</text>

    <text x="0" y="448" fill="white" fill-opacity="0.74" font-family="Plus Jakarta Sans, Arial, sans-serif" font-size="17" font-weight="600">Modern first screen: identity, motto, refined motion, and clean visitor actions.</text>

    <rect x="0" y="492" width="142" height="46" rx="10" fill="#FEF3C7"/>
    <text x="24" y="521" fill="#18453B" font-family="Plus Jakarta Sans, Arial, sans-serif" font-size="14" font-weight="800">View Programs</text>

    <rect x="158" y="492" width="153" height="46" rx="10" fill="white" fill-opacity="0.08" stroke="white" stroke-opacity="0.35"/>
    <text x="181" y="521" fill="white" font-family="Plus Jakarta Sans, Arial, sans-serif" font-size="14" font-weight="800">Support Mission</text>
  </g>

  <g transform="translate(980 465)" filter="url(#softShadow)">
    <rect width="360" height="286" rx="18" fill="white" fill-opacity="0.1" stroke="white" stroke-opacity="0.16"/>
    <rect x="18" y="18" width="324" height="132" rx="14" fill="#D4EAE3" fill-opacity="0.2"/>
    <path d="M18 150C72 104 122 124 166 96C226 58 286 86 342 40V150H18Z" fill="#FEF3C7" fill-opacity="0.18"/>
    <circle cx="286" cy="58" r="30" fill="#FEF3C7" fill-opacity="0.28"/>
    <text x="18" y="188" fill="white" fill-opacity="0.8" font-family="Plus Jakarta Sans, Arial, sans-serif" font-size="14" font-weight="600">Subtle image/accent panel for depth, not clutter.</text>
    <rect x="18" y="216" width="158" height="30" rx="15" fill="#FEF3C7" fill-opacity="0.14"/>
    <text x="32" y="236" fill="#FEF3C7" font-family="Plus Jakarta Sans, Arial, sans-serif" font-size="11" font-weight="800" letter-spacing="0.8">SLOW BACKGROUND ZOOM</text>
    <rect x="18" y="252" width="132" height="30" rx="15" fill="#FEF3C7" fill-opacity="0.14"/>
    <text x="32" y="272" fill="#FEF3C7" font-family="Plus Jakarta Sans, Arial, sans-serif" font-size="11" font-weight="800" letter-spacing="0.8">STAGGER REVEAL</text>
  </g>
</svg>
